<svg width="1420" height="200" viewBox="0 0 1420 200" fill="none" xmlns="http://www.w3.org/2000/svg">
<g clip-path="url(#clip0_166_8080)">
<rect width="1440" height="200" transform="translate(-20)" fill="white"/>
<g style="mix-blend-mode:multiply" opacity="0.3">
<path d="M139.221 192.796L167.456 218.113C168.047 218.643 168.983 218.572 169.462 217.928C175.18 210.304 173.629 198.875 165.651 191.722C157.674 184.569 146.147 184.266 139.186 190.782C138.601 191.33 138.629 192.265 139.221 192.796Z" fill="#FF6633"/>
<path d="M171.079 69.1119L141.715 45.1138C141.1 44.611 140.169 44.7247 139.719 45.3898C134.356 53.2682 136.429 64.6141 144.725 71.3942C153.021 78.1743 164.551 77.9497 171.206 71.1224C171.765 70.5474 171.694 69.6147 171.079 69.1119Z" fill="#FF6633"/>
<path d="M-19.4033 152.597L7.30525 125.675C7.86484 125.111 7.84106 124.173 7.22227 123.662C-0.104391 117.567 -11.597 118.54 -19.1429 126.146C-26.6887 133.753 -27.573 145.25 -21.4168 152.53C-20.8982 153.143 -19.9629 153.161 -19.4033 152.597Z" fill="#FF6633"/>
<path d="M160.571 110.581C166.139 109.99 171.614 118.565 172.8 129.734C173.986 140.903 170.434 150.437 164.867 151.029C159.299 151.62 153.824 143.045 152.637 131.876C151.451 120.706 155.003 111.173 160.571 110.581Z" fill="#FCA21C"/>
<path d="M99.8554 4.90633C103.476 7.509 101.097 17.0123 94.5409 26.1326C87.985 35.2529 79.7353 40.5364 76.1145 37.9337C72.4938 35.3311 74.8732 25.8278 81.429 16.7075C87.9849 7.58721 96.2346 2.30366 99.8554 4.90633Z" fill="#FCA21C"/>
<path d="M45.9774 159.895C41.5445 159.412 38.9367 149.969 40.1526 138.803C41.3685 127.637 45.9478 118.977 50.3807 119.459C54.8136 119.942 57.4215 129.385 56.2056 140.551C54.9896 151.717 50.4103 160.378 45.9774 159.895Z" fill="#FCA21C"/>
<path fill-rule="evenodd" clip-rule="evenodd" d="M48.3295 64.6266C50.1844 67.2202 49.5838 70.8213 46.9882 72.67C41.1432 76.833 33.2771 78.069 25.827 75.6484C18.3768 73.2277 12.7409 67.6034 10.4589 60.8016C9.44525 57.7804 11.0757 54.5139 14.1007 53.5056C17.1256 52.4972 20.3995 54.129 21.4131 57.1501C22.49 60.3598 25.2994 63.3519 29.3904 64.6812C33.4828 66.0108 37.5143 65.2415 40.2713 63.2779C42.8669 61.4292 46.4747 62.0331 48.3295 64.6266Z" fill="#70C05B"/>
<path fill-rule="evenodd" clip-rule="evenodd" d="M90.5777 135.599C88.7229 133.006 89.3234 129.404 91.919 127.556C97.7641 123.393 105.63 122.157 113.08 124.577C120.53 126.998 126.166 132.622 128.448 139.424C129.462 142.445 127.831 145.712 124.807 146.72C121.782 147.729 118.508 146.097 117.494 143.076C116.417 139.866 113.608 136.874 109.517 135.545C105.424 134.215 101.393 134.984 98.636 136.948C96.0403 138.797 92.4325 138.193 90.5777 135.599Z" fill="#70C05B"/>
<path fill-rule="evenodd" clip-rule="evenodd" d="M148.272 -0.775622C147.762 -3.92318 149.9 -6.88277 153.047 -7.38604C160.133 -8.51935 167.729 -6.13255 173.329 -0.654418C178.928 4.8238 181.479 12.3663 180.502 19.4738C180.068 22.6308 177.156 24.8331 173.998 24.3928C170.84 23.9525 168.632 21.0363 169.066 17.8793C169.527 14.5254 168.339 10.5967 165.264 7.58847C162.189 4.57932 158.235 3.47773 154.893 4.01229C151.746 4.51556 148.782 2.37194 148.272 -0.775622Z" fill="#70C05B"/>
<path fill-rule="evenodd" clip-rule="evenodd" d="M58.699 200.053C60.9535 202.308 60.9507 205.959 58.6929 208.207C53.6084 213.271 46.0509 215.779 38.305 214.611C30.5589 213.443 24.0781 208.817 20.7132 202.481C19.2185 199.666 20.2921 196.177 23.1111 194.687C25.9301 193.197 29.427 194.27 30.9216 197.085C32.5095 200.075 35.771 202.567 40.0245 203.208C44.2793 203.85 48.1304 202.431 50.5287 200.042C52.7866 197.793 56.4445 197.798 58.699 200.053Z" fill="#70C05B"/>
<path d="M24.7235 3.95803C23.2204 1.71704 23.8186 -1.31813 26.0596 -2.82121L49.797 -18.7424C52.0379 -20.2455 55.0731 -19.6473 56.5762 -17.4063L61.2709 -10.4068C62.774 -8.16586 62.1758 -5.13069 59.9348 -3.62761L36.1975 12.2936C33.9565 13.7967 30.9213 13.1985 29.4182 10.9575L24.7235 3.95803Z" fill="#1CB9FC"/>
<path d="M78.3576 177.491C77.782 174.854 79.4526 172.251 82.0888 171.675L110.013 165.579C112.65 165.003 115.253 166.674 115.829 169.31L117.627 177.544C118.202 180.18 116.532 182.784 113.895 183.36L85.9708 189.456C83.3346 190.032 80.7308 188.361 80.1553 185.725L78.3576 177.491Z" fill="#1CB9FC"/>
<path d="M106.497 99.1414C104.483 100.938 101.394 100.761 99.5983 98.7476L80.5723 77.4178C78.7761 75.4041 78.9525 72.3156 80.9661 70.5194L87.2557 64.9092C89.2694 63.113 92.3579 63.2893 94.1541 65.303L113.18 86.6328C114.976 88.6465 114.8 91.735 112.786 93.5312L106.497 99.1414Z" fill="#1CB9FC"/>
<path d="M245.039 19.9929L216.804 -5.32392C216.212 -5.85435 215.277 -5.78332 214.798 -5.13954C209.079 2.48521 210.631 13.9141 218.608 21.0668C226.585 28.2194 238.113 28.5227 245.074 22.0071C245.659 21.4583 245.63 20.5233 245.039 19.9929Z" fill="#FF6633"/>
<path d="M391.221 192.796L419.456 218.113C420.047 218.643 420.983 218.572 421.462 217.928C427.18 210.304 425.629 198.875 417.651 191.722C409.674 184.569 398.147 184.266 391.186 190.782C390.601 191.33 390.629 192.265 391.221 192.796Z" fill="#FF6633"/>
<path d="M423.079 69.1119L393.715 45.1138C393.1 44.611 392.169 44.7247 391.719 45.3898C386.356 53.2682 388.429 64.6141 396.725 71.3942C405.021 78.1743 416.551 77.9497 423.206 71.1224C423.765 70.5474 423.694 69.6147 423.079 69.1119Z" fill="#FF6633"/>
<path d="M232.597 152.597L259.305 125.675C259.865 125.111 259.841 124.173 259.222 123.662C251.896 117.567 240.403 118.54 232.857 126.146C225.311 133.753 224.427 145.25 230.583 152.53C231.102 153.143 232.037 153.161 232.597 152.597Z" fill="#FF6633"/>
<path d="M226.915 91.3229C221.347 91.9142 215.872 83.3391 214.686 72.1699C213.5 61.0007 217.052 51.4669 222.62 50.8756C228.188 50.2843 233.663 58.8594 234.849 70.0286C236.035 81.1978 232.483 90.7316 226.915 91.3229Z" fill="#FCA21C"/>
<path d="M412.571 110.581C418.139 109.99 423.614 118.565 424.8 129.734C425.986 140.903 422.434 150.437 416.867 151.029C411.299 151.62 405.824 143.045 404.637 131.876C403.451 120.706 407.003 111.173 412.571 110.581Z" fill="#FCA21C"/>
<path d="M351.855 4.90633C355.476 7.509 353.097 17.0123 346.541 26.1326C339.985 35.2529 331.735 40.5364 328.115 37.9337C324.494 35.3311 326.873 25.8278 333.429 16.7075C339.985 7.58721 348.235 2.30366 351.855 4.90633Z" fill="#FCA21C"/>
<path d="M297.977 159.895C293.545 159.412 290.937 149.969 292.153 138.803C293.369 127.637 297.948 118.977 302.381 119.459C306.814 119.942 309.422 129.385 308.206 140.551C306.99 151.717 302.41 160.378 297.977 159.895Z" fill="#FCA21C"/>
<path fill-rule="evenodd" clip-rule="evenodd" d="M300.33 64.6266C302.184 67.2202 301.584 70.8213 298.988 72.67C293.143 76.833 285.277 78.069 277.827 75.6484C270.377 73.2277 264.741 67.6034 262.459 60.8016C261.445 57.7804 263.076 54.5139 266.101 53.5056C269.126 52.4972 272.399 54.129 273.413 57.1501C274.49 60.3598 277.299 63.3519 281.39 64.6812C285.483 66.0108 289.514 65.2415 292.271 63.2779C294.867 61.4292 298.475 62.0331 300.33 64.6266Z" fill="#70C05B"/>
<path fill-rule="evenodd" clip-rule="evenodd" d="M342.578 135.599C340.723 133.006 341.323 129.404 343.919 127.556C349.764 123.393 357.63 122.157 365.08 124.577C372.53 126.998 378.166 132.622 380.448 139.424C381.462 142.445 379.831 145.712 376.807 146.72C373.782 147.729 370.508 146.097 369.494 143.076C368.417 139.866 365.608 136.874 361.517 135.545C357.424 134.215 353.393 134.984 350.636 136.948C348.04 138.797 344.433 138.193 342.578 135.599Z" fill="#70C05B"/>
<path fill-rule="evenodd" clip-rule="evenodd" d="M400.272 -0.775622C399.762 -3.92318 401.9 -6.88277 405.047 -7.38604C412.133 -8.51935 419.729 -6.13255 425.329 -0.654418C430.928 4.8238 433.479 12.3663 432.502 19.4738C432.068 22.6308 429.156 24.8331 425.998 24.3928C422.84 23.9525 420.632 21.0363 421.066 17.8793C421.527 14.5254 420.339 10.5967 417.264 7.58847C414.189 4.57932 410.235 3.47773 406.893 4.01229C403.746 4.51556 400.782 2.37194 400.272 -0.775622Z" fill="#70C05B"/>
<path fill-rule="evenodd" clip-rule="evenodd" d="M310.699 200.053C312.953 202.308 312.951 205.959 310.693 208.207C305.608 213.271 298.051 215.779 290.305 214.611C282.559 213.443 276.078 208.817 272.713 202.481C271.219 199.666 272.292 196.177 275.111 194.687C277.93 193.197 281.427 194.27 282.922 197.085C284.51 200.075 287.771 202.567 292.024 203.208C296.279 203.85 300.13 202.431 302.529 200.042C304.787 197.793 308.445 197.798 310.699 200.053Z" fill="#70C05B"/>
<path d="M276.724 3.95803C275.22 1.71704 275.819 -1.31813 278.06 -2.82121L301.797 -18.7424C304.038 -20.2455 307.073 -19.6473 308.576 -17.4063L313.271 -10.4068C314.774 -8.16586 314.176 -5.13069 311.935 -3.62761L288.197 12.2936C285.956 13.7967 282.921 13.1985 281.418 10.9575L276.724 3.95803Z" fill="#1CB9FC"/>
<path d="M330.358 177.491C329.782 174.854 331.453 172.251 334.089 171.675L362.013 165.579C364.65 165.003 367.253 166.674 367.829 169.31L369.627 177.544C370.202 180.18 368.532 182.784 365.895 183.36L337.971 189.456C335.335 190.032 332.731 188.361 332.155 185.725L330.358 177.491Z" fill="#1CB9FC"/>
<path d="M358.497 99.1414C356.483 100.938 353.394 100.761 351.598 98.7476L332.572 77.4178C330.776 75.4041 330.952 72.3156 332.966 70.5194L339.256 64.9092C341.269 63.113 344.358 63.2893 346.154 65.303L365.18 86.6328C366.976 88.6465 366.8 91.735 364.786 93.5312L358.497 99.1414Z" fill="#1CB9FC"/>
<path d="M225.659 173.558C228.319 173.101 230.845 174.887 231.301 177.547L236.137 205.717C236.593 208.376 234.808 210.902 232.148 211.359L223.842 212.785C221.182 213.241 218.656 211.455 218.199 208.796L213.364 180.626C212.907 177.966 214.693 175.44 217.353 174.984L225.659 173.558Z" fill="#1CB9FC"/>
<path d="M497.039 19.9929L468.804 -5.32392C468.212 -5.85435 467.277 -5.78332 466.798 -5.13954C461.079 2.48521 462.631 13.9141 470.608 21.0668C478.585 28.2194 490.113 28.5227 497.074 22.0071C497.659 21.4583 497.63 20.5233 497.039 19.9929Z" fill="#FF6633"/>
<path d="M643.221 192.796L671.456 218.113C672.047 218.643 672.983 218.572 673.462 217.928C679.18 210.304 677.629 198.875 669.651 191.722C661.674 184.569 650.147 184.266 643.186 190.782C642.601 191.33 642.629 192.265 643.221 192.796Z" fill="#FF6633"/>
<path d="M675.079 69.1119L645.715 45.1138C645.1 44.611 644.169 44.7247 643.719 45.3898C638.356 53.2682 640.429 64.6141 648.725 71.3942C657.021 78.1743 668.551 77.9497 675.206 71.1224C675.765 70.5474 675.694 69.6147 675.079 69.1119Z" fill="#FF6633"/>
<path d="M484.597 152.597L511.305 125.675C511.865 125.111 511.841 124.173 511.222 123.662C503.896 117.567 492.403 118.54 484.857 126.146C477.311 133.753 476.427 145.25 482.583 152.53C483.102 153.143 484.037 153.161 484.597 152.597Z" fill="#FF6633"/>
<path d="M478.915 91.3229C473.347 91.9142 467.872 83.3391 466.686 72.1699C465.5 61.0007 469.052 51.4669 474.62 50.8756C480.188 50.2843 485.663 58.8594 486.849 70.0286C488.035 81.1978 484.483 90.7316 478.915 91.3229Z" fill="#FCA21C"/>
<path d="M664.571 110.581C670.139 109.99 675.614 118.565 676.8 129.734C677.986 140.903 674.434 150.437 668.867 151.029C663.299 151.62 657.824 143.045 656.637 131.876C655.451 120.706 659.003 111.173 664.571 110.581Z" fill="#FCA21C"/>
<path d="M603.855 4.90633C607.476 7.509 605.097 17.0123 598.541 26.1326C591.985 35.2529 583.735 40.5364 580.115 37.9337C576.494 35.3311 578.873 25.8278 585.429 16.7075C591.985 7.58721 600.235 2.30366 603.855 4.90633Z" fill="#FCA21C"/>
<path d="M549.977 159.895C545.545 159.412 542.937 149.969 544.153 138.803C545.369 127.637 549.948 118.977 554.381 119.459C558.814 119.942 561.422 129.385 560.206 140.551C558.99 151.717 554.41 160.378 549.977 159.895Z" fill="#FCA21C"/>
<path fill-rule="evenodd" clip-rule="evenodd" d="M552.33 64.6266C554.184 67.2202 553.584 70.8213 550.988 72.67C545.143 76.833 537.277 78.069 529.827 75.6484C522.377 73.2277 516.741 67.6034 514.459 60.8016C513.445 57.7804 515.076 54.5139 518.101 53.5056C521.126 52.4972 524.399 54.129 525.413 57.1501C526.49 60.3598 529.299 63.3519 533.39 64.6812C537.483 66.0108 541.514 65.2415 544.271 63.2779C546.867 61.4292 550.475 62.0331 552.33 64.6266Z" fill="#70C05B"/>
<path fill-rule="evenodd" clip-rule="evenodd" d="M594.578 135.599C592.723 133.006 593.323 129.404 595.919 127.556C601.764 123.393 609.63 122.157 617.08 124.577C624.53 126.998 630.166 132.622 632.448 139.424C633.462 142.445 631.831 145.712 628.807 146.72C625.782 147.729 622.508 146.097 621.494 143.076C620.417 139.866 617.608 136.874 613.517 135.545C609.424 134.215 605.393 134.984 602.636 136.948C600.04 138.797 596.433 138.193 594.578 135.599Z" fill="#70C05B"/>
<path fill-rule="evenodd" clip-rule="evenodd" d="M652.272 -0.775622C651.762 -3.92318 653.9 -6.88277 657.047 -7.38604C664.133 -8.51935 671.729 -6.13255 677.329 -0.654418C682.928 4.8238 685.479 12.3663 684.502 19.4738C684.068 22.6308 681.156 24.8331 677.998 24.3928C674.84 23.9525 672.632 21.0363 673.066 17.8793C673.527 14.5254 672.339 10.5967 669.264 7.58847C666.189 4.57932 662.235 3.47773 658.893 4.01229C655.746 4.51556 652.782 2.37194 652.272 -0.775622Z" fill="#70C05B"/>
<path fill-rule="evenodd" clip-rule="evenodd" d="M562.699 200.053C564.953 202.308 564.951 205.959 562.693 208.207C557.608 213.271 550.051 215.779 542.305 214.611C534.559 213.443 528.078 208.817 524.713 202.481C523.219 199.666 524.292 196.177 527.111 194.687C529.93 193.197 533.427 194.27 534.922 197.085C536.51 200.075 539.771 202.567 544.024 203.208C548.279 203.85 552.13 202.431 554.529 200.042C556.787 197.793 560.445 197.798 562.699 200.053Z" fill="#70C05B"/>
<path d="M528.724 3.95803C527.22 1.71704 527.819 -1.31813 530.06 -2.82121L553.797 -18.7424C556.038 -20.2455 559.073 -19.6473 560.576 -17.4063L565.271 -10.4068C566.774 -8.16586 566.176 -5.13069 563.935 -3.62761L540.197 12.2936C537.956 13.7967 534.921 13.1985 533.418 10.9575L528.724 3.95803Z" fill="#1CB9FC"/>
<path d="M582.358 177.491C581.782 174.854 583.453 172.251 586.089 171.675L614.013 165.579C616.65 165.003 619.253 166.674 619.829 169.31L621.627 177.544C622.202 180.18 620.532 182.784 617.895 183.36L589.971 189.456C587.335 190.032 584.731 188.361 584.155 185.725L582.358 177.491Z" fill="#1CB9FC"/>
<path d="M610.497 99.1414C608.483 100.938 605.394 100.761 603.598 98.7476L584.572 77.4178C582.776 75.4041 582.952 72.3156 584.966 70.5194L591.256 64.9092C593.269 63.113 596.358 63.2893 598.154 65.303L617.18 86.6328C618.976 88.6465 618.8 91.735 616.786 93.5312L610.497 99.1414Z" fill="#1CB9FC"/>
<path d="M477.659 173.558C480.319 173.101 482.845 174.887 483.301 177.547L488.137 205.717C488.593 208.376 486.808 210.902 484.148 211.359L475.842 212.785C473.182 213.241 470.656 211.455 470.199 208.796L465.364 180.626C464.907 177.966 466.693 175.44 469.353 174.984L477.659 173.558Z" fill="#1CB9FC"/>
<path d="M749.039 19.9929L720.804 -5.32392C720.212 -5.85435 719.277 -5.78332 718.798 -5.13954C713.079 2.48521 714.631 13.9141 722.608 21.0668C730.585 28.2194 742.113 28.5227 749.074 22.0071C749.659 21.4583 749.63 20.5233 749.039 19.9929Z" fill="#FF6633"/>
<path d="M895.221 192.796L923.456 218.113C924.047 218.643 924.983 218.572 925.462 217.928C931.18 210.304 929.629 198.875 921.651 191.722C913.674 184.569 902.147 184.266 895.186 190.782C894.601 191.33 894.629 192.265 895.221 192.796Z" fill="#FF6633"/>
<path d="M927.079 69.1119L897.715 45.1138C897.1 44.611 896.169 44.7247 895.719 45.3898C890.356 53.2682 892.429 64.6141 900.725 71.3942C909.021 78.1743 920.551 77.9497 927.206 71.1224C927.765 70.5474 927.694 69.6147 927.079 69.1119Z" fill="#FF6633"/>
<path d="M736.597 152.597L763.305 125.675C763.865 125.111 763.841 124.173 763.222 123.662C755.896 117.567 744.403 118.54 736.857 126.146C729.311 133.753 728.427 145.25 734.583 152.53C735.102 153.143 736.037 153.161 736.597 152.597Z" fill="#FF6633"/>
<path d="M730.915 91.3229C725.347 91.9142 719.872 83.3391 718.686 72.1699C717.5 61.0007 721.052 51.4669 726.62 50.8756C732.188 50.2843 737.663 58.8594 738.849 70.0286C740.035 81.1978 736.483 90.7316 730.915 91.3229Z" fill="#FCA21C"/>
<path d="M916.571 110.581C922.139 109.99 927.614 118.565 928.8 129.734C929.986 140.903 926.434 150.437 920.867 151.029C915.299 151.62 909.824 143.045 908.637 131.876C907.451 120.706 911.003 111.173 916.571 110.581Z" fill="#FCA21C"/>
<path d="M855.855 4.90633C859.476 7.509 857.097 17.0123 850.541 26.1326C843.985 35.2529 835.735 40.5364 832.115 37.9337C828.494 35.3311 830.873 25.8278 837.429 16.7075C843.985 7.58721 852.235 2.30366 855.855 4.90633Z" fill="#FCA21C"/>
<path d="M801.977 159.895C797.545 159.412 794.937 149.969 796.153 138.803C797.369 127.637 801.948 118.977 806.381 119.459C810.814 119.942 813.422 129.385 812.206 140.551C810.99 151.717 806.41 160.378 801.977 159.895Z" fill="#FCA21C"/>
<path fill-rule="evenodd" clip-rule="evenodd" d="M804.33 64.6266C806.184 67.2202 805.584 70.8213 802.988 72.67C797.143 76.833 789.277 78.069 781.827 75.6484C774.377 73.2277 768.741 67.6034 766.459 60.8016C765.445 57.7804 767.076 54.5139 770.101 53.5056C773.126 52.4972 776.399 54.129 777.413 57.1501C778.49 60.3598 781.299 63.3519 785.39 64.6812C789.483 66.0108 793.514 65.2415 796.271 63.2779C798.867 61.4292 802.475 62.0331 804.33 64.6266Z" fill="#70C05B"/>
<path fill-rule="evenodd" clip-rule="evenodd" d="M846.578 135.599C844.723 133.006 845.323 129.404 847.919 127.556C853.764 123.393 861.63 122.157 869.08 124.577C876.53 126.998 882.166 132.622 884.448 139.424C885.462 142.445 883.831 145.712 880.807 146.72C877.782 147.729 874.508 146.097 873.494 143.076C872.417 139.866 869.608 136.874 865.517 135.545C861.424 134.215 857.393 134.984 854.636 136.948C852.04 138.797 848.433 138.193 846.578 135.599Z" fill="#70C05B"/>
<path fill-rule="evenodd" clip-rule="evenodd" d="M904.272 -0.775622C903.762 -3.92318 905.9 -6.88277 909.047 -7.38604C916.133 -8.51935 923.729 -6.13255 929.329 -0.654418C934.928 4.8238 937.479 12.3663 936.502 19.4738C936.068 22.6308 933.156 24.8331 929.998 24.3928C926.84 23.9525 924.632 21.0363 925.066 17.8793C925.527 14.5254 924.339 10.5967 921.264 7.58847C918.189 4.57932 914.235 3.47773 910.893 4.01229C907.746 4.51556 904.782 2.37194 904.272 -0.775622Z" fill="#70C05B"/>
<path fill-rule="evenodd" clip-rule="evenodd" d="M814.699 200.053C816.953 202.308 816.951 205.959 814.693 208.207C809.608 213.271 802.051 215.779 794.305 214.611C786.559 213.443 780.078 208.817 776.713 202.481C775.219 199.666 776.292 196.177 779.111 194.687C781.93 193.197 785.427 194.27 786.922 197.085C788.51 200.075 791.771 202.567 796.024 203.208C800.279 203.85 804.13 202.431 806.529 200.042C808.787 197.793 812.445 197.798 814.699 200.053Z" fill="#70C05B"/>
<path d="M780.724 3.95803C779.22 1.71704 779.819 -1.31813 782.06 -2.82121L805.797 -18.7424C808.038 -20.2455 811.073 -19.6473 812.576 -17.4063L817.271 -10.4068C818.774 -8.16586 818.176 -5.13069 815.935 -3.62761L792.197 12.2936C789.956 13.7967 786.921 13.1985 785.418 10.9575L780.724 3.95803Z" fill="#1CB9FC"/>
<path d="M834.358 177.491C833.782 174.854 835.453 172.251 838.089 171.675L866.013 165.579C868.65 165.003 871.253 166.674 871.829 169.31L873.627 177.544C874.202 180.18 872.532 182.784 869.895 183.36L841.971 189.456C839.335 190.032 836.731 188.361 836.155 185.725L834.358 177.491Z" fill="#1CB9FC"/>
<path d="M862.497 99.1414C860.483 100.938 857.394 100.761 855.598 98.7476L836.572 77.4178C834.776 75.4041 834.952 72.3156 836.966 70.5194L843.256 64.9092C845.269 63.113 848.358 63.2893 850.154 65.303L869.18 86.6328C870.976 88.6465 870.8 91.735 868.786 93.5312L862.497 99.1414Z" fill="#1CB9FC"/>
<path d="M729.659 173.558C732.319 173.101 734.845 174.887 735.301 177.547L740.137 205.717C740.593 208.376 738.808 210.902 736.148 211.359L727.842 212.785C725.182 213.241 722.656 211.455 722.199 208.796L717.364 180.626C716.907 177.966 718.693 175.44 721.353 174.984L729.659 173.558Z" fill="#1CB9FC"/>
<path d="M1001.04 19.9929L972.804 -5.32392C972.212 -5.85435 971.277 -5.78332 970.798 -5.13954C965.079 2.48521 966.631 13.9141 974.608 21.0668C982.585 28.2194 994.113 28.5227 1001.07 22.0071C1001.66 21.4583 1001.63 20.5233 1001.04 19.9929Z" fill="#FF6633"/>
<path d="M1147.22 192.796L1175.46 218.113C1176.05 218.643 1176.98 218.572 1177.46 217.928C1183.18 210.304 1181.63 198.875 1173.65 191.722C1165.67 184.569 1154.15 184.266 1147.19 190.782C1146.6 191.33 1146.63 192.265 1147.22 192.796Z" fill="#FF6633"/>
<path d="M1179.08 69.1119L1149.71 45.1138C1149.1 44.611 1148.17 44.7247 1147.72 45.3898C1142.36 53.2682 1144.43 64.6141 1152.73 71.3942C1161.02 78.1743 1172.55 77.9497 1179.21 71.1224C1179.77 70.5474 1179.69 69.6147 1179.08 69.1119Z" fill="#FF6633"/>
<path d="M988.597 152.597L1015.31 125.675C1015.86 125.111 1015.84 124.173 1015.22 123.662C1007.9 117.567 996.403 118.54 988.857 126.146C981.311 133.753 980.427 145.25 986.583 152.53C987.102 153.143 988.037 153.161 988.597 152.597Z" fill="#FF6633"/>
<path d="M982.915 91.3229C977.347 91.9142 971.872 83.3391 970.686 72.1699C969.5 61.0007 973.052 51.4669 978.62 50.8756C984.188 50.2843 989.663 58.8594 990.849 70.0286C992.035 81.1978 988.483 90.7316 982.915 91.3229Z" fill="#FCA21C"/>
<path d="M1168.57 110.581C1174.14 109.99 1179.61 118.565 1180.8 129.734C1181.99 140.903 1178.43 150.437 1172.87 151.029C1167.3 151.62 1161.82 143.045 1160.64 131.876C1159.45 120.706 1163 111.173 1168.57 110.581Z" fill="#FCA21C"/>
<path d="M1107.86 4.90633C1111.48 7.509 1109.1 17.0123 1102.54 26.1326C1095.99 35.2529 1087.74 40.5364 1084.11 37.9337C1080.49 35.3311 1082.87 25.8278 1089.43 16.7075C1095.98 7.58721 1104.23 2.30366 1107.86 4.90633Z" fill="#FCA21C"/>
<path d="M1053.98 159.895C1049.54 159.412 1046.94 149.969 1048.15 138.803C1049.37 127.637 1053.95 118.977 1058.38 119.459C1062.81 119.942 1065.42 129.385 1064.21 140.551C1062.99 151.717 1058.41 160.378 1053.98 159.895Z" fill="#FCA21C"/>
<path fill-rule="evenodd" clip-rule="evenodd" d="M1056.33 64.6266C1058.18 67.2202 1057.58 70.8213 1054.99 72.67C1049.14 76.833 1041.28 78.069 1033.83 75.6484C1026.38 73.2277 1020.74 67.6034 1018.46 60.8016C1017.45 57.7804 1019.08 54.5139 1022.1 53.5056C1025.13 52.4972 1028.4 54.129 1029.41 57.1501C1030.49 60.3598 1033.3 63.3519 1037.39 64.6812C1041.48 66.0108 1045.51 65.2415 1048.27 63.2779C1050.87 61.4292 1054.47 62.0331 1056.33 64.6266Z" fill="#70C05B"/>
<path fill-rule="evenodd" clip-rule="evenodd" d="M1098.58 135.599C1096.72 133.006 1097.32 129.404 1099.92 127.556C1105.76 123.393 1113.63 122.157 1121.08 124.577C1128.53 126.998 1134.17 132.622 1136.45 139.424C1137.46 142.445 1135.83 145.712 1132.81 146.72C1129.78 147.729 1126.51 146.097 1125.49 143.076C1124.42 139.866 1121.61 136.874 1117.52 135.545C1113.42 134.215 1109.39 134.984 1106.64 136.948C1104.04 138.797 1100.43 138.193 1098.58 135.599Z" fill="#70C05B"/>
<path fill-rule="evenodd" clip-rule="evenodd" d="M1156.27 -0.775622C1155.76 -3.92318 1157.9 -6.88277 1161.05 -7.38604C1168.13 -8.51935 1175.73 -6.13255 1181.33 -0.654418C1186.93 4.8238 1189.48 12.3663 1188.5 19.4738C1188.07 22.6308 1185.16 24.8331 1182 24.3928C1178.84 23.9525 1176.63 21.0363 1177.07 17.8793C1177.53 14.5254 1176.34 10.5967 1173.26 7.58847C1170.19 4.57932 1166.23 3.47773 1162.89 4.01229C1159.75 4.51556 1156.78 2.37194 1156.27 -0.775622Z" fill="#70C05B"/>
<path fill-rule="evenodd" clip-rule="evenodd" d="M1066.7 200.053C1068.95 202.308 1068.95 205.959 1066.69 208.207C1061.61 213.271 1054.05 215.779 1046.3 214.611C1038.56 213.443 1032.08 208.817 1028.71 202.481C1027.22 199.666 1028.29 196.177 1031.11 194.687C1033.93 193.197 1037.43 194.27 1038.92 197.085C1040.51 200.075 1043.77 202.567 1048.02 203.208C1052.28 203.85 1056.13 202.431 1058.53 200.042C1060.79 197.793 1064.44 197.798 1066.7 200.053Z" fill="#70C05B"/>
<path d="M1032.72 3.95803C1031.22 1.71704 1031.82 -1.31813 1034.06 -2.82121L1057.8 -18.7424C1060.04 -20.2455 1063.07 -19.6473 1064.58 -17.4063L1069.27 -10.4068C1070.77 -8.16586 1070.18 -5.13069 1067.93 -3.62761L1044.2 12.2936C1041.96 13.7967 1038.92 13.1985 1037.42 10.9575L1032.72 3.95803Z" fill="#1CB9FC"/>
<path d="M1086.36 177.491C1085.78 174.854 1087.45 172.251 1090.09 171.675L1118.01 165.579C1120.65 165.003 1123.25 166.674 1123.83 169.31L1125.63 177.544C1126.2 180.18 1124.53 182.784 1121.9 183.36L1093.97 189.456C1091.33 190.032 1088.73 188.361 1088.16 185.725L1086.36 177.491Z" fill="#1CB9FC"/>
<path d="M1114.5 99.1414C1112.48 100.938 1109.39 100.761 1107.6 98.7476L1088.57 77.4178C1086.78 75.4041 1086.95 72.3156 1088.97 70.5194L1095.26 64.9092C1097.27 63.113 1100.36 63.2893 1102.15 65.303L1121.18 86.6328C1122.98 88.6465 1122.8 91.735 1120.79 93.5312L1114.5 99.1414Z" fill="#1CB9FC"/>
<path d="M981.659 173.558C984.319 173.101 986.845 174.887 987.301 177.547L992.137 205.717C992.593 208.376 990.808 210.902 988.148 211.359L979.842 212.785C977.182 213.241 974.656 211.455 974.199 208.796L969.364 180.626C968.907 177.966 970.693 175.44 973.353 174.984L981.659 173.558Z" fill="#1CB9FC"/>
<path d="M1253.04 19.9929L1224.8 -5.32392C1224.21 -5.85435 1223.28 -5.78332 1222.8 -5.13954C1217.08 2.48521 1218.63 13.9141 1226.61 21.0668C1234.59 28.2194 1246.11 28.5227 1253.07 22.0071C1253.66 21.4583 1253.63 20.5233 1253.04 19.9929Z" fill="#FF6633"/>
<path d="M1399.22 192.796L1427.46 218.113C1428.05 218.643 1428.98 218.572 1429.46 217.928C1435.18 210.304 1433.63 198.875 1425.65 191.722C1417.67 184.569 1406.15 184.266 1399.19 190.782C1398.6 191.33 1398.63 192.265 1399.22 192.796Z" fill="#FF6633"/>
<path d="M1431.08 69.1119L1401.71 45.1138C1401.1 44.611 1400.17 44.7247 1399.72 45.3898C1394.36 53.2682 1396.43 64.6141 1404.73 71.3942C1413.02 78.1743 1424.55 77.9497 1431.21 71.1224C1431.77 70.5474 1431.69 69.6147 1431.08 69.1119Z" fill="#FF6633"/>
<path d="M1240.6 152.597L1267.31 125.675C1267.86 125.111 1267.84 124.173 1267.22 123.662C1259.9 117.567 1248.4 118.54 1240.86 126.146C1233.31 133.753 1232.43 145.25 1238.58 152.53C1239.1 153.143 1240.04 153.161 1240.6 152.597Z" fill="#FF6633"/>
<path d="M1234.92 91.3229C1229.35 91.9142 1223.87 83.3391 1222.69 72.1699C1221.5 61.0007 1225.05 51.4669 1230.62 50.8756C1236.19 50.2843 1241.66 58.8594 1242.85 70.0286C1244.04 81.1978 1240.48 90.7316 1234.92 91.3229Z" fill="#FCA21C"/>
<path d="M1420.57 110.581C1426.14 109.99 1431.61 118.565 1432.8 129.734C1433.99 140.903 1430.43 150.437 1424.87 151.029C1419.3 151.62 1413.82 143.045 1412.64 131.876C1411.45 120.706 1415 111.173 1420.57 110.581Z" fill="#FCA21C"/>
<path d="M1359.86 4.90633C1363.48 7.509 1361.1 17.0123 1354.54 26.1326C1347.99 35.2529 1339.74 40.5364 1336.11 37.9337C1332.49 35.3311 1334.87 25.8278 1341.43 16.7075C1347.98 7.58721 1356.23 2.30366 1359.86 4.90633Z" fill="#FCA21C"/>
<path d="M1305.98 159.895C1301.54 159.412 1298.94 149.969 1300.15 138.803C1301.37 127.637 1305.95 118.977 1310.38 119.459C1314.81 119.942 1317.42 129.385 1316.21 140.551C1314.99 151.717 1310.41 160.378 1305.98 159.895Z" fill="#FCA21C"/>
<path fill-rule="evenodd" clip-rule="evenodd" d="M1308.33 64.6266C1310.18 67.2202 1309.58 70.8213 1306.99 72.67C1301.14 76.833 1293.28 78.069 1285.83 75.6484C1278.38 73.2277 1272.74 67.6034 1270.46 60.8016C1269.45 57.7804 1271.08 54.5139 1274.1 53.5056C1277.13 52.4972 1280.4 54.129 1281.41 57.1501C1282.49 60.3598 1285.3 63.3519 1289.39 64.6812C1293.48 66.0108 1297.51 65.2415 1300.27 63.2779C1302.87 61.4292 1306.47 62.0331 1308.33 64.6266Z" fill="#70C05B"/>
<path fill-rule="evenodd" clip-rule="evenodd" d="M1350.58 135.599C1348.72 133.006 1349.32 129.404 1351.92 127.556C1357.76 123.393 1365.63 122.157 1373.08 124.577C1380.53 126.998 1386.17 132.622 1388.45 139.424C1389.46 142.445 1387.83 145.712 1384.81 146.72C1381.78 147.729 1378.51 146.097 1377.49 143.076C1376.42 139.866 1373.61 136.874 1369.52 135.545C1365.42 134.215 1361.39 134.984 1358.64 136.948C1356.04 138.797 1352.43 138.193 1350.58 135.599Z" fill="#70C05B"/>
<path fill-rule="evenodd" clip-rule="evenodd" d="M1408.27 -0.775622C1407.76 -3.92318 1409.9 -6.88277 1413.05 -7.38604C1420.13 -8.51935 1427.73 -6.13255 1433.33 -0.654418C1438.93 4.8238 1441.48 12.3663 1440.5 19.4738C1440.07 22.6308 1437.16 24.8331 1434 24.3928C1430.84 23.9525 1428.63 21.0363 1429.07 17.8793C1429.53 14.5254 1428.34 10.5967 1425.26 7.58847C1422.19 4.57932 1418.23 3.47773 1414.89 4.01229C1411.75 4.51556 1408.78 2.37194 1408.27 -0.775622Z" fill="#70C05B"/>
<path fill-rule="evenodd" clip-rule="evenodd" d="M1318.7 200.053C1320.95 202.308 1320.95 205.959 1318.69 208.207C1313.61 213.271 1306.05 215.779 1298.3 214.611C1290.56 213.443 1284.08 208.817 1280.71 202.481C1279.22 199.666 1280.29 196.177 1283.11 194.687C1285.93 193.197 1289.43 194.27 1290.92 197.085C1292.51 200.075 1295.77 202.567 1300.02 203.208C1304.28 203.85 1308.13 202.431 1310.53 200.042C1312.79 197.793 1316.44 197.798 1318.7 200.053Z" fill="#70C05B"/>
<path d="M1284.72 3.95803C1283.22 1.71704 1283.82 -1.31813 1286.06 -2.82121L1309.8 -18.7424C1312.04 -20.2455 1315.07 -19.6473 1316.58 -17.4063L1321.27 -10.4068C1322.77 -8.16586 1322.18 -5.13069 1319.93 -3.62761L1296.2 12.2936C1293.96 13.7967 1290.92 13.1985 1289.42 10.9575L1284.72 3.95803Z" fill="#1CB9FC"/>
<path d="M1338.36 177.491C1337.78 174.854 1339.45 172.251 1342.09 171.675L1370.01 165.579C1372.65 165.003 1375.25 166.674 1375.83 169.31L1377.63 177.544C1378.2 180.18 1376.53 182.784 1373.9 183.36L1345.97 189.456C1343.33 190.032 1340.73 188.361 1340.16 185.725L1338.36 177.491Z" fill="#1CB9FC"/>
<path d="M1366.5 99.1414C1364.48 100.938 1361.39 100.761 1359.6 98.7476L1340.57 77.4178C1338.78 75.4041 1338.95 72.3156 1340.97 70.5194L1347.26 64.9092C1349.27 63.113 1352.36 63.2893 1354.15 65.303L1373.18 86.6328C1374.98 88.6465 1374.8 91.735 1372.79 93.5312L1366.5 99.1414Z" fill="#1CB9FC"/>
<path d="M1233.66 173.558C1236.32 173.101 1238.84 174.887 1239.3 177.547L1244.14 205.717C1244.59 208.376 1242.81 210.902 1240.15 211.359L1231.84 212.785C1229.18 213.241 1226.66 211.455 1226.2 208.796L1221.36 180.626C1220.91 177.966 1222.69 175.44 1225.35 174.984L1233.66 173.558Z" fill="#1CB9FC"/>
</g>
</g>
<defs>
<clipPath id="clip0_166_8080">
<rect width="1440" height="200" fill="white" transform="translate(-20)"/>
</clipPath>
</defs>
</svg>
